<svg xmlns="http://www.w3.org/2000/svg" width="32" height="32" viewBox="0 0 32 32">
  <defs>
    <linearGradient id="gradient1" x1="0%" y1="0%" x2="100%" y2="100%">
      <stop offset="0%" stop-color="#3B82F6"/>
      <stop offset="100%" stop-color="#6366F1"/>
    </linearGradient>
    <linearGradient id="gradient2" x1="0%" y1="0%" x2="100%" y2="100%">
      <stop offset="0%" stop-color="#10B981"/>
      <stop offset="100%" stop-color="#059669"/>
    </linearGradient>
  </defs>
  
  <!-- Background circle -->
  <circle cx="16" cy="16" r="15" fill="url(#gradient1)" stroke="#E5E7EB" stroke-width="1"/>
  
  <!-- Brain/AI icon -->
  <path d="M12 8c-1.1 0-2 .9-2 2 0 .35.09.68.24.96C9.64 11.25 9 12.07 9 13c0 .93.64 1.75 1.24 2.04-.15.28-.24.61-.24.96 0 1.1.9 2 2 2h8c1.1 0 2-.9 2-2 0-.35-.09-.68-.24-.96.6-.29 1.24-1.11 1.24-2.04 0-.93-.64-1.75-1.24-2.04.15-.28.24-.61.24-.96 0-1.1-.9-2-2-2h-8z" fill="url(#gradient2)"/>
  
  <!-- Neural network dots -->
  <circle cx="13" cy="11" r="1" fill="white" opacity="0.8"/>
  <circle cx="16" cy="13" r="1" fill="white" opacity="0.8"/>
  <circle cx="19" cy="11" r="1" fill="white" opacity="0.8"/>
  <circle cx="14" cy="15" r="1" fill="white" opacity="0.8"/>
  <circle cx="18" cy="15" r="1" fill="white" opacity="0.8"/>
  
  <!-- Connection lines -->
  <line x1="13" y1="11" x2="16" y2="13" stroke="white" stroke-width="0.5" opacity="0.6"/>
  <line x1="16" y1="13" x2="19" y2="11" stroke="white" stroke-width="0.5" opacity="0.6"/>
  <line x1="16" y1="13" x2="14" y2="15" stroke="white" stroke-width="0.5" opacity="0.6"/>
  <line x1="16" y1="13" x2="18" y2="15" stroke="white" stroke-width="0.5" opacity="0.6"/>
  
  <!-- Workspace icon (folder) -->
  <path d="M8 20h16c1.1 0 2 .9 2 2v4c0 1.1-.9 2-2 2H8c-1.1 0-2-.9-2-2v-4c0-1.1.9-2 2-2z" fill="white" opacity="0.9"/>
  <path d="M10 18h4l1-1h7c1.1 0 2 .9 2 2v1H8v-1c0-1.1.9-1 2-1z" fill="white" opacity="0.7"/>
  
  <!-- Small GPT text -->
  <text x="16" y="25" text-anchor="middle" font-family="Arial, sans-serif" font-size="3" fill="#374151" font-weight="bold">GPT</text>
</svg>